<?xml version="1.0" encoding="utf-8"?>
<!-- Generator: Adobe Illustrator 25.2.3, SVG Export Plug-In . SVG Version: 6.00 Build 0)  -->
<svg version="1.1" id="Ebene_1" xmlns="http://www.w3.org/2000/svg" xmlns:xlink="http://www.w3.org/1999/xlink" x="0px" y="0px"
	 width="198.43px" height="198.43px" viewBox="0 0 198.43 198.43" enable-background="new 0 0 198.43 198.43" xml:space="preserve">
<path fill="#FFFFFF" d="M98.86,20.6c43.17,0,78.18,35,78.18,78.17c0,43.17-35,78.18-78.17,78.18c-43.18,0-78.18-35-78.18-78.17
	C20.69,55.6,55.69,20.6,98.86,20.6"/>
<path d="M98.86,6.65c-50.8,0-92.12,41.33-92.12,92.13c0,50.8,41.33,92.12,92.13,92.12c50.8,0,92.12-41.33,92.12-92.13
	C190.99,47.97,149.66,6.64,98.86,6.65 M98.86,20.6c43.17,0,78.18,35,78.18,78.17c0,43.17-35,78.18-78.17,78.18
	c-43.18,0-78.18-35-78.18-78.17C20.69,55.6,55.69,20.6,98.86,20.6"/>
<path d="M63.89,96.16c-0.59,0-1.03-0.12-1.32-0.36c-0.43-0.37-0.59-0.55-0.66-0.63L49.56,79.75v15.39c0,0.31-0.09,0.55-0.28,0.73
	c-0.19,0.19-0.42,0.28-0.73,0.28h-7.36c-0.31,0-0.55-0.09-0.74-0.28c-0.18-0.18-0.27-0.42-0.27-0.73V57.22
	c0-0.31,0.09-0.55,0.28-0.74c0.18-0.18,0.42-0.27,0.73-0.27h7.36c0.31,0,0.54,0.09,0.74,0.28c0.19,0.19,0.28,0.42,0.28,0.74v14.21
	l11.59-14.29c0.15-0.21,0.37-0.42,0.7-0.64c0.29-0.2,0.71-0.3,1.23-0.3h8.41c0.23,0,0.4,0.07,0.55,0.23
	c0.16,0.18,0.23,0.35,0.23,0.54c0,0.17-0.05,0.31-0.14,0.43l-14.09,17.8l15.2,19.74c0.08,0.08,0.14,0.18,0.14,0.43
	c0,0.2-0.08,0.36-0.24,0.53c-0.17,0.18-0.34,0.25-0.53,0.25H63.89z"/>
<path d="M85.85,67.09c-1.89,0-3.33,0.61-4.25,1.83c-0.89,1.17-1.39,2.88-1.47,5.08c-0.04,0.59-0.06,1.4-0.06,2.42
	c0,1.01,0.02,1.82,0.06,2.43c0.09,2.24,0.58,3.95,1.48,5.1c0.92,1.19,2.35,1.79,4.25,1.79c1.93,0,3.38-0.6,4.28-1.79
	c0.87-1.15,1.37-2.86,1.5-5.1c0.05-0.6,0.07-1.41,0.07-2.43c0-1.01-0.02-1.82-0.07-2.43c-0.12-2.19-0.62-3.9-1.49-5.06
	C89.23,67.71,87.79,67.09,85.85,67.09 M85.85,92.15c-3.28,0-6.07-0.53-8.29-1.58c-2.2-1.03-3.91-2.54-5.08-4.47
	c-1.18-1.95-1.85-4.31-2-7.02c-0.04-0.79-0.06-1.69-0.06-2.7c0-1.01,0.02-1.89,0.06-2.65c0.15-2.74,0.85-5.11,2.09-7.04
	c1.23-1.92,2.97-3.42,5.18-4.45c2.23-1.04,4.96-1.57,8.11-1.57c3.19,0,5.94,0.53,8.17,1.57c2.21,1.04,3.95,2.54,5.18,4.45
	c1.23,1.93,1.93,4.3,2.09,7.04c0.04,0.75,0.05,1.63,0.05,2.64c0,1.01-0.02,1.91-0.05,2.71c-0.16,2.71-0.83,5.08-2.01,7.02
	c-1.17,1.94-2.88,3.44-5.08,4.47C91.98,91.62,89.17,92.15,85.85,92.15"/>
<path d="M147.4,101.62c-0.36,0-0.64-0.1-0.88-0.33c-0.22-0.21-0.33-0.48-0.33-0.81V78.34c0-1.55-0.23-2.8-0.68-3.72
	c-0.46-0.95-1.1-1.65-1.9-2.07c-0.78-0.42-1.69-0.63-2.69-0.63c-0.83,0-1.65,0.21-2.46,0.62c-0.82,0.42-1.48,1.12-1.97,2.07
	c-0.48,0.92-0.72,2.18-0.72,3.73v20.89c0,0.35-0.1,0.62-0.31,0.83c-0.21,0.21-0.48,0.31-0.83,0.31h-7.38c-0.35,0-0.62-0.1-0.83-0.31
	c-0.21-0.21-0.31-0.48-0.31-0.83V78.34c0-1.55-0.25-2.81-0.75-3.74c-0.51-0.95-1.17-1.64-1.96-2.06c-0.78-0.42-1.66-0.63-2.62-0.63
	c-0.83,0-1.65,0.21-2.46,0.62c-0.82,0.42-1.48,1.11-1.97,2.07c-0.48,0.92-0.72,2.16-0.72,3.67v22.2c0,0.34-0.11,0.61-0.34,0.82
	c-0.24,0.22-0.52,0.32-0.87,0.32h-7.5c-0.35,0-0.62-0.1-0.83-0.31c-0.21-0.21-0.31-0.48-0.31-0.83v-34.4c0-0.35,0.1-0.61,0.32-0.83
	c0.21-0.21,0.48-0.31,0.82-0.31h6.93c0.35,0,0.61,0.1,0.83,0.32c0.21,0.21,0.31,0.47,0.31,0.82v3.51l0.8-1.08
	c0.81-1.09,1.96-2.06,3.42-2.89c1.45-0.82,3.2-1.27,5.19-1.31l0.3,0c4.5,0,7.63,1.78,9.33,5.28l0.36,0.74l0.43-0.7
	c0.92-1.53,2.28-2.81,4.03-3.82c1.75-0.99,3.69-1.5,5.75-1.5c2.11,0,4.04,0.48,5.72,1.44c1.67,0.95,3.03,2.42,4.05,4.39
	c1.02,1.97,1.54,4.59,1.54,7.77v22.58c0,0.35-0.1,0.61-0.33,0.82c-0.23,0.22-0.5,0.32-0.81,0.32H147.4z"/>
<path d="M54.63,118.18c-1.25,0-2.3,0.28-3.13,0.84c-0.82,0.55-1.44,1.27-1.85,2.16c-0.4,0.85-0.62,1.79-0.66,2.79
	c-0.04,0.72-0.06,1.43-0.06,2.11c0,0.68,0.02,1.41,0.06,2.17c0.04,1.05,0.24,2.05,0.59,2.96c0.37,0.94,0.97,1.72,1.79,2.32
	c0.83,0.6,1.92,0.9,3.25,0.9c1.37,0,2.47-0.3,3.26-0.88c0.79-0.58,1.37-1.38,1.71-2.36c0.33-0.94,0.54-1.98,0.61-3.11
	c0.08-1.18,0.08-2.38,0-3.56c-0.08-1.12-0.28-2.17-0.62-3.11c-0.34-0.98-0.91-1.77-1.71-2.35C57.1,118.48,56.01,118.18,54.63,118.18
	 M57.68,141.1c-2.03,0-3.74-0.34-5.07-1.03c-1.35-0.68-2.47-1.55-3.33-2.59l-0.79-0.95v3.04c0,0.29-0.09,0.51-0.28,0.69
	c-0.2,0.19-0.42,0.27-0.68,0.27h-6.38c-0.29,0-0.53-0.09-0.7-0.26c-0.18-0.18-0.27-0.41-0.27-0.7v-37.25c0-0.29,0.09-0.53,0.26-0.7
	c0.18-0.18,0.4-0.27,0.7-0.27h6.89c0.3,0,0.52,0.08,0.7,0.26c0.17,0.17,0.26,0.4,0.26,0.7v13.22l0.77-0.84
	c0.85-0.93,1.96-1.7,3.27-2.29c1.31-0.59,2.87-0.89,4.64-0.89c1.81,0,3.43,0.3,4.82,0.89c1.38,0.6,2.57,1.46,3.53,2.57
	c0.98,1.12,1.74,2.48,2.29,4.03c0.55,1.56,0.86,3.36,0.94,5.35c0.04,0.71,0.05,1.35,0.05,1.93c0,0.58-0.02,1.24-0.05,1.98
	c-0.08,2.06-0.4,3.91-0.96,5.49c-0.56,1.57-1.34,2.92-2.31,4.03c-0.97,1.1-2.16,1.93-3.5,2.48C61.1,140.81,59.49,141.1,57.68,141.1"
	/>
<path d="M78.67,105.64c-0.26,0-0.44-0.07-0.58-0.23c-0.16-0.17-0.23-0.37-0.23-0.64v-5.21c0-0.26,0.07-0.47,0.23-0.64
	c0.14-0.15,0.33-0.23,0.59-0.23h5.27c0.26,0,0.47,0.08,0.63,0.24c0.16,0.16,0.24,0.36,0.24,0.62v5.21c0,0.26-0.08,0.46-0.24,0.63
	c-0.16,0.16-0.36,0.24-0.63,0.24H78.67z M90.52,105.64c-0.27,0-0.47-0.08-0.62-0.24c-0.17-0.17-0.25-0.37-0.25-0.63v-5.21
	c0-0.26,0.08-0.46,0.24-0.63c0.16-0.16,0.36-0.24,0.63-0.24h5.26c0.27,0,0.47,0.08,0.63,0.24c0.17,0.17,0.25,0.37,0.25,0.63v5.21
	c0,0.26-0.08,0.46-0.24,0.63c-0.16,0.17-0.36,0.24-0.63,0.24H90.52z M83.37,138.4c-2.08,0-3.96-0.48-5.58-1.43
	c-1.62-0.95-2.9-2.35-3.8-4.19c-0.92-1.85-1.38-4.16-1.38-6.87v-15.97c0-0.31,0.09-0.53,0.27-0.71c0.18-0.18,0.41-0.27,0.71-0.27
	h7.15c0.3,0,0.53,0.09,0.72,0.27c0.18,0.19,0.27,0.41,0.27,0.71v15.63c0,3.96,1.9,6.06,5.48,6.06c1.68,0,3.05-0.54,4.07-1.6
	c1.01-1.06,1.53-2.56,1.53-4.46v-15.63c0-0.3,0.09-0.53,0.27-0.72c0.18-0.18,0.41-0.26,0.71-0.26h7.16c0.3,0,0.53,0.09,0.72,0.27
	c0.18,0.18,0.27,0.41,0.27,0.71v26.91c0,0.3-0.09,0.53-0.27,0.71c-0.19,0.18-0.41,0.27-0.72,0.27H94.3c-0.26,0-0.49-0.09-0.7-0.28
	c-0.19-0.18-0.28-0.41-0.28-0.7v-3.56l-0.81,1.12c-0.94,1.3-2.18,2.3-3.69,2.98C87.3,138.05,85.47,138.4,83.37,138.4"/>
<path d="M116.9,135.55c-2.28,0-4.25-0.26-5.84-0.76c-1.59-0.51-2.89-1.13-3.87-1.85c-0.97-0.72-1.7-1.46-2.17-2.22
	c-0.46-0.73-0.71-1.36-0.74-1.86c-0.02-0.26,0.05-0.45,0.23-0.62c0.19-0.18,0.39-0.28,0.59-0.28h6.17c0.11,0.04,0.16,0.07,0.3,0.17
	c0.5,0.27,0.96,0.58,1.4,0.94c0.51,0.41,1.09,0.76,1.72,1.06c0.67,0.32,1.48,0.48,2.43,0.48c1.1,0,2.04-0.22,2.78-0.66
	c0.83-0.48,1.27-1.24,1.27-2.2c0-0.69-0.2-1.28-0.61-1.75c-0.39-0.45-1.08-0.85-2.17-1.25c-1.03-0.37-2.51-0.73-4.55-1.1
	c-1.83-0.43-3.44-0.99-4.79-1.67c-1.32-0.65-2.35-1.52-3.07-2.59c-0.7-1.05-1.06-2.35-1.06-3.87c0-1.33,0.45-2.64,1.32-3.89
	c0.89-1.26,2.21-2.31,3.92-3.12c1.73-0.81,3.9-1.23,6.45-1.23c2.03,0,3.81,0.24,5.29,0.71c1.49,0.48,2.75,1.08,3.76,1.8
	c1.02,0.73,1.79,1.47,2.29,2.21c0.49,0.71,0.75,1.35,0.78,1.92c0.02,0.25-0.04,0.42-0.19,0.59c-0.17,0.18-0.32,0.25-0.52,0.25h-5.63
	c-0.09,0-0.18-0.01-0.26-0.05c-0.11-0.04-0.21-0.09-0.29-0.14c-0.44-0.22-0.84-0.49-1.25-0.83c-0.46-0.38-0.99-0.72-1.61-1.04
	c-0.65-0.32-1.45-0.48-2.38-0.48c-1.08,0-1.95,0.25-2.57,0.75c-0.66,0.53-0.99,1.22-0.99,2.05c0,0.57,0.19,1.11,0.56,1.59
	c0.37,0.48,1.07,0.89,2.12,1.25c0.98,0.34,2.51,0.71,4.53,1.1c2.44,0.39,4.38,1.01,5.8,1.86c1.39,0.84,2.39,1.81,2.96,2.89
	c0.57,1.09,0.86,2.26,0.86,3.49c0,1.61-0.48,3.06-1.44,4.3c-0.96,1.25-2.43,2.25-4.36,2.96
	C122.14,135.19,119.72,135.55,116.9,135.55"/>
<path d="M146.41,112.8c-1.14,0-2.13,0.28-2.92,0.84c-0.8,0.56-1.41,1.36-1.83,2.37c-0.41,0.99-0.62,2.15-0.62,3.45v0.14l0.11,0.24
	l0.08,0.06l0.25,0.12h10.35v-0.3c0-1.54-0.19-2.71-0.58-3.71c-0.4-1.02-1.03-1.82-1.87-2.38
	C148.54,113.08,147.55,112.8,146.41,112.8 M146.47,138.05c-4.48,0-8.08-1.22-10.71-3.64c-2.63-2.39-4.02-6.03-4.13-10.81v-2.04
	c0.12-2.99,0.79-5.59,2.02-7.72c1.21-2.12,2.93-3.75,5.09-4.86c2.17-1.12,4.75-1.68,7.68-1.68c3.34,0,6.13,0.67,8.29,1.99
	c2.16,1.32,3.81,3.13,4.9,5.38c1.1,2.27,1.65,4.91,1.65,7.83v1.41c0,0.3-0.1,0.54-0.3,0.73c-0.21,0.2-0.44,0.29-0.72,0.29h-19.2
	v0.86c0.04,1.2,0.25,2.29,0.61,3.27c0.38,1.01,0.98,1.83,1.79,2.43c0.82,0.6,1.81,0.91,2.96,0.91c0.84,0,1.57-0.14,2.15-0.43
	c0.56-0.27,1.04-0.59,1.44-0.96c0.36-0.34,0.65-0.64,0.86-0.89c0.4-0.44,0.6-0.57,0.69-0.61c0.11-0.05,0.34-0.11,0.85-0.11h7.27
	c0.28,0,0.51,0.07,0.68,0.22c0.09,0.08,0.19,0.21,0.16,0.52c-0.03,0.59-0.35,1.33-0.92,2.2c-0.61,0.9-1.49,1.8-2.62,2.67
	c-1.15,0.89-2.61,1.62-4.35,2.19C150.85,137.77,148.79,138.05,146.47,138.05"/>
</svg>
