<?xml version="1.0" encoding="utf-8"?>
<!-- Generator: Adobe Illustrator 25.2.3, SVG Export Plug-In . SVG Version: 6.00 Build 0)  -->
<svg version="1.1" id="Ebene_1" xmlns="http://www.w3.org/2000/svg" xmlns:xlink="http://www.w3.org/1999/xlink" x="0px" y="0px"
	 width="396.85px" height="198.43px" viewBox="0 0 396.85 198.43" enable-background="new 0 0 396.85 198.43" xml:space="preserve">
<g>
	<path d="M12.93,19.53c18.85-0.84,46.7-0.77,79.67,4.47c54.7,8.7,91.76,26.59,114.55,36.24c41.52,17.57,92.27,36.63,180.76,40.68
		c-44.94,20.55-120.65,49.13-208.46,55.24c-36.71,2.56-47.49-1.43-78.78,1.65c-38.29,3.77-68.6,13.27-87.75,20.45V19.53z"/>
	<path fill="#FFFFFF" d="M93.98,49.8c23.7,0,42.92,19.21,42.92,42.92c0,23.7-19.21,42.92-42.92,42.92
		c-23.7,0-42.92-19.21-42.92-42.92C51.06,69.02,70.27,49.8,93.98,49.8"/>
	<path d="M74.78,91.28c-0.32,0-0.57-0.07-0.72-0.2c-0.24-0.2-0.33-0.3-0.36-0.34l-6.79-8.46v8.45c0,0.17-0.05,0.3-0.15,0.4
		c-0.1,0.1-0.23,0.15-0.4,0.15h-4.04c-0.17,0-0.3-0.05-0.4-0.15c-0.1-0.1-0.15-0.23-0.15-0.4V69.9c0-0.17,0.05-0.3,0.15-0.41
		c0.1-0.1,0.23-0.15,0.4-0.15h4.04c0.17,0,0.3,0.05,0.4,0.15c0.1,0.1,0.15,0.23,0.15,0.4v7.8l6.36-7.84
		c0.08-0.12,0.21-0.23,0.38-0.35c0.16-0.11,0.39-0.16,0.68-0.16h4.61c0.13,0,0.22,0.04,0.3,0.13c0.09,0.1,0.13,0.19,0.13,0.3
		c0,0.09-0.03,0.17-0.08,0.24l-7.73,9.77l8.34,10.84c0.04,0.04,0.08,0.1,0.08,0.24c0,0.11-0.04,0.2-0.13,0.29
		c-0.1,0.1-0.19,0.14-0.29,0.14H74.78z"/>
	<path d="M86.84,75.32c-1.04,0-1.83,0.34-2.33,1c-0.49,0.64-0.76,1.58-0.81,2.79c-0.02,0.33-0.03,0.77-0.03,1.33s0.01,1,0.03,1.33
		c0.05,1.23,0.32,2.17,0.81,2.8c0.51,0.65,1.29,0.98,2.33,0.98c1.06,0,1.85-0.33,2.35-0.99c0.48-0.63,0.75-1.57,0.82-2.8
		c0.03-0.33,0.04-0.77,0.04-1.33c0-0.56-0.01-1-0.04-1.33c-0.07-1.2-0.34-2.14-0.82-2.78C88.69,75.66,87.9,75.32,86.84,75.32
		 M86.84,89.08c-1.8,0-3.33-0.29-4.55-0.87c-1.21-0.57-2.15-1.39-2.79-2.45c-0.65-1.07-1.02-2.37-1.1-3.85
		c-0.02-0.44-0.03-0.93-0.03-1.48c0-0.56,0.01-1.04,0.03-1.45c0.08-1.5,0.47-2.8,1.14-3.86c0.67-1.05,1.63-1.88,2.85-2.44
		c1.22-0.57,2.72-0.86,4.45-0.86c1.75,0,3.26,0.29,4.49,0.86c1.21,0.57,2.17,1.39,2.85,2.44c0.67,1.06,1.06,2.36,1.15,3.86
		c0.02,0.41,0.03,0.9,0.03,1.45c0,0.56-0.01,1.05-0.03,1.49c-0.09,1.49-0.46,2.79-1.1,3.85c-0.64,1.06-1.58,1.89-2.79,2.45
		C90.2,88.79,88.66,89.08,86.84,89.08"/>
	<path d="M120.63,94.28c-0.2,0-0.35-0.06-0.48-0.18c-0.12-0.12-0.18-0.26-0.18-0.45V81.5c0-0.85-0.13-1.54-0.37-2.04
		c-0.25-0.52-0.61-0.91-1.04-1.14c-0.43-0.23-0.93-0.34-1.48-0.34c-0.46,0-0.91,0.11-1.35,0.34c-0.45,0.23-0.82,0.61-1.08,1.14
		c-0.26,0.51-0.39,1.2-0.39,2.05v11.47c0,0.19-0.06,0.34-0.17,0.45c-0.12,0.12-0.26,0.17-0.45,0.17h-4.05
		c-0.19,0-0.34-0.06-0.45-0.17c-0.12-0.12-0.17-0.26-0.17-0.45V81.5c0-0.85-0.14-1.54-0.41-2.05c-0.28-0.52-0.64-0.9-1.08-1.13
		c-0.43-0.23-0.91-0.34-1.44-0.34c-0.45,0-0.91,0.11-1.35,0.34c-0.45,0.23-0.81,0.61-1.08,1.14c-0.26,0.51-0.39,1.19-0.39,2.01
		v12.19c0,0.19-0.06,0.33-0.18,0.45c-0.13,0.12-0.28,0.18-0.48,0.18H98.4c-0.19,0-0.34-0.06-0.45-0.17
		c-0.12-0.12-0.17-0.26-0.17-0.45V74.76c0-0.19,0.06-0.33,0.17-0.45c0.11-0.12,0.26-0.17,0.45-0.17h3.8c0.19,0,0.34,0.06,0.46,0.17
		c0.11,0.12,0.17,0.26,0.17,0.45v1.93l0.44-0.59c0.44-0.6,1.08-1.13,1.88-1.59c0.8-0.45,1.75-0.69,2.85-0.72l0.17,0
		c2.47,0,4.19,0.97,5.12,2.9l0.2,0.41l0.23-0.39c0.51-0.84,1.25-1.54,2.21-2.09c0.96-0.54,2.02-0.82,3.16-0.82
		c1.16,0,2.22,0.27,3.14,0.79c0.92,0.52,1.66,1.33,2.22,2.41c0.56,1.08,0.84,2.52,0.84,4.27v12.4c0,0.19-0.06,0.33-0.18,0.45
		c-0.13,0.12-0.27,0.18-0.44,0.18H120.63z"/>
	<path d="M69.7,103.37c-0.69,0-1.26,0.16-1.72,0.46c-0.45,0.3-0.79,0.7-1.01,1.18c-0.22,0.47-0.34,0.98-0.36,1.53
		c-0.02,0.39-0.03,0.78-0.03,1.16c0,0.38,0.01,0.77,0.03,1.19c0.02,0.58,0.13,1.13,0.32,1.62c0.2,0.52,0.53,0.94,0.98,1.27
		c0.45,0.33,1.05,0.5,1.79,0.5c0.75,0,1.35-0.16,1.79-0.48c0.44-0.32,0.75-0.75,0.94-1.29c0.18-0.51,0.3-1.09,0.34-1.71
		c0.04-0.65,0.04-1.31,0-1.96c-0.04-0.62-0.16-1.19-0.34-1.71c-0.19-0.54-0.5-0.97-0.94-1.29C71.05,103.53,70.45,103.37,69.7,103.37
		 M71.37,115.95c-1.11,0-2.05-0.19-2.79-0.56c-0.74-0.37-1.35-0.85-1.83-1.42l-0.43-0.52v1.67c0,0.16-0.05,0.28-0.15,0.38
		c-0.11,0.1-0.23,0.15-0.37,0.15h-3.5c-0.16,0-0.29-0.05-0.38-0.14c-0.1-0.1-0.15-0.22-0.15-0.39V94.66c0-0.16,0.05-0.29,0.14-0.38
		c0.1-0.1,0.22-0.15,0.39-0.15h3.78c0.16,0,0.29,0.05,0.39,0.15c0.1,0.1,0.14,0.22,0.14,0.38v7.26l0.43-0.46
		c0.47-0.51,1.07-0.93,1.79-1.26c0.72-0.32,1.58-0.49,2.55-0.49c0.99,0,1.89,0.16,2.65,0.49c0.76,0.33,1.41,0.8,1.94,1.41
		c0.54,0.61,0.96,1.36,1.25,2.21c0.3,0.86,0.47,1.84,0.51,2.93c0.02,0.39,0.03,0.74,0.03,1.06c0,0.32-0.01,0.68-0.03,1.09
		c-0.04,1.13-0.22,2.15-0.53,3.02c-0.31,0.86-0.74,1.61-1.27,2.21c-0.54,0.6-1.18,1.06-1.92,1.36
		C73.25,115.8,72.36,115.95,71.37,115.95"/>
	<path d="M82.89,96.48c-0.14,0-0.24-0.04-0.32-0.12c-0.09-0.09-0.13-0.2-0.13-0.35v-2.86c0-0.14,0.04-0.26,0.12-0.35
		c0.08-0.08,0.18-0.12,0.32-0.12h2.89c0.14,0,0.25,0.04,0.35,0.13c0.09,0.09,0.13,0.2,0.13,0.34v2.86c0,0.14-0.04,0.25-0.13,0.34
		c-0.09,0.09-0.2,0.13-0.35,0.13H82.89z M89.4,96.48c-0.15,0-0.26-0.04-0.34-0.13c-0.09-0.09-0.13-0.2-0.13-0.35v-2.86
		c0-0.14,0.04-0.25,0.13-0.34c0.09-0.09,0.2-0.13,0.35-0.13h2.89c0.15,0,0.26,0.04,0.34,0.13c0.09,0.09,0.14,0.2,0.14,0.34v2.86
		c0,0.14-0.04,0.25-0.13,0.34c-0.09,0.09-0.2,0.13-0.35,0.13H89.4z M85.47,114.47c-1.14,0-2.17-0.26-3.07-0.78
		c-0.89-0.52-1.59-1.29-2.09-2.3c-0.5-1.02-0.76-2.28-0.76-3.77v-8.77c0-0.17,0.05-0.29,0.15-0.39c0.1-0.1,0.23-0.15,0.39-0.15h3.93
		c0.16,0,0.29,0.05,0.39,0.15c0.1,0.1,0.15,0.23,0.15,0.39v8.58c0,2.18,1.04,3.33,3.01,3.33c0.92,0,1.68-0.29,2.24-0.88
		c0.56-0.58,0.84-1.4,0.84-2.45v-8.58c0-0.16,0.05-0.29,0.15-0.39c0.1-0.1,0.23-0.15,0.39-0.15h3.93c0.16,0,0.29,0.05,0.4,0.15
		c0.1,0.1,0.14,0.23,0.14,0.39v14.77c0,0.16-0.05,0.29-0.15,0.39c-0.1,0.1-0.23,0.15-0.39,0.15h-3.65c-0.14,0-0.27-0.05-0.38-0.15
		c-0.1-0.1-0.16-0.22-0.16-0.39v-1.95l-0.44,0.62c-0.52,0.71-1.2,1.26-2.02,1.63C87.63,114.28,86.63,114.47,85.47,114.47"/>
	<path d="M103.88,112.91c-1.25,0-2.33-0.14-3.2-0.42c-0.87-0.28-1.59-0.62-2.12-1.02c-0.53-0.39-0.93-0.8-1.19-1.22
		c-0.25-0.4-0.39-0.75-0.41-1.02c-0.01-0.14,0.03-0.25,0.12-0.34c0.11-0.1,0.22-0.15,0.33-0.15h3.39c0.06,0.02,0.09,0.04,0.16,0.1
		c0.28,0.15,0.53,0.32,0.77,0.52c0.28,0.22,0.6,0.42,0.95,0.58c0.37,0.17,0.81,0.26,1.33,0.26c0.6,0,1.12-0.12,1.53-0.36
		c0.46-0.26,0.7-0.68,0.7-1.21c0-0.38-0.11-0.7-0.33-0.96c-0.21-0.25-0.59-0.46-1.19-0.68c-0.56-0.2-1.38-0.4-2.5-0.61
		c-1-0.23-1.89-0.54-2.63-0.91c-0.73-0.36-1.29-0.84-1.68-1.42c-0.38-0.58-0.58-1.29-0.58-2.12c0-0.73,0.24-1.45,0.73-2.14
		c0.49-0.69,1.21-1.27,2.15-1.71c0.95-0.45,2.14-0.67,3.54-0.67c1.11,0,2.09,0.13,2.91,0.39c0.82,0.26,1.51,0.59,2.07,0.99
		c0.56,0.4,0.98,0.81,1.26,1.21c0.27,0.39,0.41,0.74,0.43,1.05c0.01,0.14-0.02,0.23-0.1,0.32c-0.09,0.1-0.18,0.14-0.28,0.14h-3.09
		c-0.05,0-0.1-0.01-0.14-0.03c-0.06-0.02-0.11-0.05-0.16-0.08c-0.24-0.12-0.46-0.27-0.69-0.46c-0.25-0.21-0.54-0.4-0.88-0.57
		c-0.35-0.18-0.79-0.26-1.31-0.26c-0.59,0-1.07,0.14-1.41,0.41c-0.36,0.29-0.55,0.67-0.55,1.13c0,0.31,0.1,0.61,0.31,0.88
		c0.2,0.26,0.59,0.49,1.17,0.68c0.54,0.18,1.38,0.39,2.49,0.6c1.34,0.21,2.41,0.56,3.18,1.02c0.77,0.46,1.31,0.99,1.62,1.59
		c0.32,0.6,0.47,1.24,0.47,1.91c0,0.89-0.27,1.68-0.79,2.36c-0.53,0.69-1.33,1.23-2.39,1.62
		C106.76,112.71,105.43,112.91,103.88,112.91"/>
	<path d="M120.08,100.42c-0.63,0-1.17,0.16-1.6,0.46c-0.44,0.31-0.77,0.74-1,1.3c-0.23,0.54-0.34,1.18-0.34,1.89v0.08l0.06,0.13
		l0.04,0.03l0.14,0.07h5.68v-0.16c0-0.85-0.1-1.49-0.32-2.04c-0.22-0.56-0.57-1-1.03-1.31
		C121.25,100.57,120.71,100.42,120.08,100.42 M120.11,114.28c-2.46,0-4.44-0.67-5.88-2c-1.44-1.31-2.2-3.31-2.27-5.94v-1.12
		c0.06-1.64,0.44-3.07,1.11-4.24c0.67-1.16,1.61-2.06,2.79-2.67c1.19-0.61,2.61-0.92,4.22-0.92c1.83,0,3.36,0.37,4.55,1.09
		c1.19,0.72,2.09,1.72,2.69,2.95c0.6,1.25,0.91,2.69,0.91,4.3v0.77c0,0.17-0.05,0.3-0.16,0.4c-0.12,0.11-0.24,0.16-0.4,0.16h-10.54
		v0.47c0.02,0.66,0.14,1.26,0.34,1.79c0.21,0.56,0.54,1,0.99,1.33c0.45,0.33,1,0.5,1.62,0.5c0.46,0,0.86-0.08,1.18-0.23
		c0.31-0.15,0.57-0.32,0.79-0.53c0.2-0.19,0.36-0.35,0.47-0.49c0.22-0.24,0.33-0.31,0.38-0.33c0.06-0.03,0.18-0.06,0.46-0.06h3.99
		c0.15,0,0.28,0.04,0.37,0.12c0.05,0.04,0.1,0.11,0.09,0.29c-0.02,0.32-0.19,0.73-0.51,1.21c-0.33,0.5-0.82,0.99-1.44,1.47
		c-0.63,0.49-1.43,0.89-2.39,1.2C122.52,114.12,121.39,114.28,120.11,114.28"/>
</g>
</svg>
